<?xml version="1.0" standalone="no"?>
<!DOCTYPE svg PUBLIC "-//W3C//DTD SVG 20010904//EN"
 "http://www.w3.org/TR/2001/REC-SVG-20010904/DTD/svg10.dtd">
<svg version="1.0" xmlns="http://www.w3.org/2000/svg"
 width="260.000000pt" height="260.000000pt" viewBox="0 0 260.000000 260.000000"
 preserveAspectRatio="xMidYMid meet">
<metadata>
Created by potrace 1.14, written by Peter Selinger 2001-2017
</metadata>
<g transform="translate(0.000000,260.000000) scale(0.100000,-0.100000)"
fill="#000000" stroke="none">
<path d="M1240 2292 c-90 -10 -251 -58 -335 -99 -81 -41 -206 -128 -262 -182
-143 -142 -251 -352 -279 -546 -10 -68 -12 -358 -3 -370 4 -5 16 -41 28 -80
22 -74 92 -228 109 -239 5 -3 60 11 121 31 61 20 107 39 102 42 -5 4 -48 5
-95 4 l-86 -2 -29 62 c-51 111 -98 299 -82 326 7 11 318 18 328 7 3 -3 7 -32
9 -63 11 -200 39 -321 71 -309 8 3 21 6 28 6 21 0 24 23 9 86 -14 63 -21 112
-29 216 l-5 66 48 4 c26 2 174 3 330 1 185 -3 301 0 335 7 49 10 117 46 117
62 0 4 -64 9 -142 10 l-143 3 0 198 0 197 25 1 c116 5 348 3 361 -3 30 -14 64
-143 68 -260 1 -10 5 -18 10 -18 15 0 71 51 66 60 -3 4 -7 23 -9 41 -3 19 -12
65 -20 104 -8 38 -12 72 -10 75 9 9 244 10 267 1 20 -8 28 -5 46 17 11 14 21
31 21 37 0 22 -65 109 -136 182 -70 72 -71 74 -50 89 21 14 20 15 -9 12 -21
-1 -48 10 -90 39 -137 94 -312 163 -450 178 -16 2 -30 5 -30 6 0 3 -179 4
-205 1z m63 -258 c0 -93 -2 -181 -2 -196 l-1 -26 -180 -1 c-209 0 -201 -6
-146 105 41 81 136 197 194 238 43 29 110 57 127 52 6 -2 9 -66 8 -172z m165
151 c29 -13 73 -44 98 -67 78 -73 163 -203 178 -274 l7 -31 -180 0 c-100 1
-182 4 -182 7 -4 15 -5 367 -1 378 6 17 20 15 80 -13z m-447 -52 c-75 -98
-106 -151 -159 -275 l-21 -47 -83 3 c-46 2 -102 4 -126 5 l-43 1 33 46 c66 93
219 214 341 269 71 32 84 32 58 -2z m734 -16 c88 -44 194 -118 246 -174 60
-63 102 -120 92 -126 -4 -2 -62 -3 -127 -3 l-119 1 -33 78 c-31 71 -90 169
-145 241 l-22 28 24 -7 c13 -4 51 -21 84 -38z m-949 -386 c7 -1 7 -20 -2 -63
-8 -35 -15 -79 -18 -98 -2 -19 -7 -57 -11 -85 -5 -45 -12 -110 -14 -142 -1
-18 -327 -19 -333 -1 -4 11 12 121 28 193 4 17 22 66 39 110 l32 80 84 5 c73
4 160 5 195 1z m479 0 c20 -1 20 -7 21 -196 0 -189 -1 -196 -20 -200 -12 -3
-115 -4 -231 -3 l-210 3 1 55 c2 141 20 248 53 320 l12 25 177 -1 c97 -1 186
-2 197 -3z"/>
<path d="M2315 2133 c-16 -2 -61 -11 -100 -19 -38 -9 -78 -17 -89 -20 -44 -9
-21 -12 76 -11 81 1 111 -3 141 -17 131 -64 52 -250 -203 -479 -41 -37 -86
-75 -98 -85 -13 -9 -34 -26 -45 -37 -12 -11 -67 -54 -122 -95 -123 -92 -135
-102 -135 -112 0 -14 149 -9 186 7 30 12 97 61 189 137 11 9 55 44 98 78 220
176 382 394 382 516 0 61 -19 87 -81 115 -40 18 -139 29 -199 22z"/>
<path d="M2286 1444 c-9 -8 -17 -21 -17 -27 -1 -7 -3 -23 -4 -37 -1 -14 -3
-30 -4 -36 0 -6 -28 -14 -62 -17 -49 -4 -67 -11 -90 -33 -16 -15 -26 -30 -23
-33 3 -3 42 -6 87 -6 l82 0 3 -30 c2 -26 -13 -121 -31 -190 -17 -66 -62 -165
-79 -176 -6 -4 -62 -6 -126 -6 -65 -1 -124 -2 -132 -4 -10 -3 -14 3 -13 16 12
111 16 141 19 146 5 9 17 98 18 134 1 27 -2 29 -34 30 l-34 0 -12 -70 c-6 -38
-15 -90 -18 -115 -7 -52 -23 -120 -28 -125 -14 -14 -57 -21 -85 -13 -43 12
-81 -6 -106 -49 l-19 -33 86 0 c47 0 86 -2 86 -5 0 -2 -7 -26 -16 -52 -24 -71
-89 -166 -152 -224 -53 -49 -174 -115 -190 -105 -4 2 -7 76 -6 163 2 227 1
220 24 226 24 6 27 42 5 51 -15 6 -95 -21 -105 -35 -3 -4 -5 -95 -5 -203 1
-129 -3 -196 -10 -197 -74 -8 -156 50 -253 179 -43 57 -50 62 -76 57 -16 -3
-32 -7 -35 -10 -8 -8 23 -66 63 -118 21 -27 36 -52 34 -57 -3 -9 -151 61 -200
93 -26 18 -89 19 -105 3 -16 -16 98 -102 192 -145 65 -31 96 -40 210 -66 73
-17 288 -23 360 -11 62 10 203 46 238 61 18 7 34 13 37 13 10 -1 136 76 185
112 149 110 278 287 340 465 19 56 19 55 30 110 4 22 10 49 12 60 7 33 12 258
6 293 -6 35 -23 41 -47 16z m-207 -696 c-7 -13 -46 -57 -88 -99 -79 -80 -175
-147 -273 -192 -69 -31 -76 -18 -23 40 19 21 61 91 92 156 l58 117 123 0 123
0 -12 -22z"/>
<path d="M1315 1172 c-2 -2 10 -31 27 -64 33 -67 33 -68 -42 -106 -161 -84
-199 -102 -209 -102 -6 0 -11 -4 -11 -10 0 -5 -3 -9 -7 -8 -5 2 -33 -8 -63
-22 -30 -13 -57 -25 -60 -25 -3 -1 -18 -7 -33 -13 -16 -7 -31 -12 -34 -12 -3
0 -19 -6 -36 -14 -38 -17 -191 -68 -267 -89 -151 -42 -290 -54 -356 -31 -54
18 -84 56 -84 104 0 46 35 129 78 185 75 97 78 102 33 60 -53 -49 -148 -165
-185 -224 -40 -62 -68 -150 -61 -187 8 -47 55 -85 125 -101 26 -6 125 -6 156
1 16 3 49 8 74 12 70 9 264 61 375 100 55 20 105 37 110 38 6 2 23 8 38 14 16
7 30 12 33 12 3 0 71 32 152 71 321 155 374 180 376 177 1 -2 7 -15 15 -29 7
-14 23 -38 35 -54 l23 -28 91 161 c51 89 93 167 95 174 1 9 -47 12 -191 13
-106 0 -195 -1 -197 -3z"/>
</g>
</svg>
